<?xml version="1.0" standalone="no"?>
<!DOCTYPE svg PUBLIC "-//W3C//DTD SVG 20010904//EN"
 "http://www.w3.org/TR/2001/REC-SVG-20010904/DTD/svg10.dtd">
<svg version="1.0" xmlns="http://www.w3.org/2000/svg"
 width="33.000000pt" height="33.000000pt" viewBox="0 0 33.000000 33.000000"
 preserveAspectRatio="xMidYMid meet">

<g transform="translate(0.000000,33.000000) scale(0.100000,-0.100000)"
fill="#000000" stroke="none">
<path d="M139 314 c-10 -12 -10 -20 -1 -35 17 -27 16 -29 -24 -29 -41 0 -74
-15 -74 -34 0 -8 -9 -16 -20 -19 -16 -4 -20 -14 -20 -47 0 -33 4 -43 20 -47
11 -3 20 -14 20 -25 0 -12 9 -22 21 -25 16 -4 19 -11 15 -29 -8 -32 13 -31 44
1 19 21 33 25 94 27 64 3 71 5 74 24 2 12 12 24 23 27 28 8 28 87 -1 94 -11 3
-20 11 -20 19 0 19 -33 34 -74 34 -40 0 -41 2 -24 29 9 15 9 23 -1 35 -8 9
-19 16 -26 16 -7 0 -18 -7 -26 -16z m136 -164 l0 -75 -67 -5 c-52 -4 -72 -10
-92 -29 -26 -24 -26 -24 -26 -3 0 12 -9 26 -20 32 -17 9 -20 21 -20 79 0 37 3
71 7 75 4 3 54 5 112 4 l106 -3 0 -75z"/>
<path d="M89 184 c-10 -12 -9 -18 3 -31 19 -18 38 -10 38 17 0 24 -25 33 -41
14z"/>
<path d="M213 193 c-16 -6 -17 -39 -2 -49 6 -3 18 1 27 10 14 14 14 18 2 30
-8 7 -21 12 -27 9z"/>
<path d="M120 112 c0 -6 9 -14 21 -17 26 -8 69 2 69 16 0 7 -7 8 -17 4 -10 -4
-22 -7 -28 -7 -5 0 -18 3 -27 7 -11 4 -18 3 -18 -3z"/>
</g>
</svg>
